<svg width="40" height="40" viewBox="0 0 40 40" fill="none" xmlns="http://www.w3.org/2000/svg">
    <path fill-rule="evenodd" clip-rule="evenodd"
          d="M18.9775 24.5388L25.3847 8.964L20.8842 39.511C20.4451 39.5405 20.0021 39.5554 19.5556 39.5554C10.3179 39.5554 2.57618 33.1502 0.52946 24.5388H18.0842H18.9775ZM0.088462 21.8721C0.0299345 21.2559 0 20.6314 0 19.9999C0 9.19966 8.75532 0.444336 19.5556 0.444336C21.6697 0.444336 23.7055 0.779832 25.6127 1.40049L17.191 21.8721H0.088462ZM28.9793 2.86063L24.4643 33.5062L30.8703 21.8721H39.0226C39.0812 21.2559 39.1111 20.6314 39.1111 19.9999C39.1111 12.6164 35.0192 6.18863 28.9793 2.86063ZM38.5816 24.5388H32.4462L24.5289 38.9174C31.4767 37.0958 36.9157 31.5482 38.5816 24.5388Z"
          fill="#FF0012"/>
    <path fill-rule="evenodd" clip-rule="evenodd"
          d="M61.9408 6.4385H60.6466C60.5504 5.52941 60.0798 5.08021 59.16 5.08021C58.4113 5.08021 57.7482 5.40107 57.7482 6.18182C57.7482 6.86631 58.4648 7.15508 59.4595 7.42246L59.5888 7.4576C60.8445 7.79818 62.144 8.15065 62.144 9.73262C62.144 11.2941 60.6573 12 59.2563 12C57.5664 12 56.2616 11.1551 56.1761 9.3369H57.5023C57.5343 10.3636 58.2616 10.9198 59.2563 10.9198C60.1119 10.9198 60.8605 10.5348 60.8605 9.74332C60.8605 8.97328 60.1315 8.77734 59.2539 8.54146L59.2539 8.54145L59.2537 8.5414C59.1806 8.52176 59.1065 8.50184 59.0317 8.48128C57.7696 8.13904 56.4755 7.68984 56.4541 6.19251C56.4327 4.72727 57.8017 4 59.1814 4C60.7322 4 61.8445 4.77005 61.9408 6.4385ZM54.1283 9.47594H55.4118C55.0588 10.8984 53.7968 11.9572 51.8824 11.9572C49.4973 11.9572 48 10.2674 48 8C48 5.75401 49.508 4.04278 51.893 4.04278C53.8182 4.04278 54.9412 5.03743 55.4118 6.52406H54.1283C53.7219 5.60428 53.0588 5.13369 51.893 5.13369C50.2674 5.13369 49.2941 6.40642 49.2941 8C49.2941 9.59358 50.2674 10.8663 51.893 10.8663C53.1444 10.8663 53.8182 10.3102 54.1283 9.47594ZM65.9594 4.18182H63.2321V11.8182H64.5262V8.95187H65.9594C67.5316 8.95187 68.6653 7.91444 68.6653 6.53476C68.6653 5.18717 67.6171 4.18182 65.9594 4.18182ZM65.8524 7.87166H64.5262V5.26203H65.8524C66.815 5.26203 67.3712 5.68984 67.3712 6.54545C67.3712 7.40107 66.815 7.87166 65.8524 7.87166ZM70.8322 11.8182H69.5381V4.18182H72.4472C74.1905 4.18182 75.1424 5.1016 75.1424 6.35294C75.1424 7.3369 74.5114 8.13904 73.613 8.36364C74.2654 8.57754 74.5114 9.14439 74.7787 10.0321C74.8065 10.1181 74.8327 10.2006 74.8579 10.2802C75.0365 10.8443 75.1686 11.2613 75.506 11.7112V11.8182H74.1156C73.8653 11.492 73.7387 11.0474 73.6099 10.5951C73.5572 10.4097 73.504 10.2231 73.4418 10.0428C73.1959 9.3369 72.8964 8.82353 71.9659 8.82353H70.8322V11.8182ZM70.8322 5.24064V7.75401H72.383C73.3456 7.75401 73.859 7.24064 73.859 6.4492C73.859 5.7754 73.4312 5.24064 72.3402 5.24064H70.8322ZM48.4444 36.0598V16.4444H51.6313V36.0598H48.4444ZM57.8114 16.4994V19.6313H54.4873V16.4994H57.8114ZM57.729 36.0598H54.5697V21.8565H57.729V36.0598ZM59.4082 21.8565C60.2736 24.2191 61.1321 26.5886 61.9906 28.9581C62.8491 31.3276 63.7077 33.6972 64.5731 36.0598H68.117L73.2819 21.8565H69.9302C69.5715 22.9734 69.2056 24.0974 68.8417 25.2151L68.8411 25.217L68.8411 25.2171L68.841 25.2172L68.841 25.2173C67.9788 27.8655 67.1284 30.4779 66.4137 32.873H66.3588C65.7228 30.8288 65.0701 28.8263 64.4146 26.815C63.8807 25.1771 63.345 23.5334 62.8148 21.8565H59.4082ZM80.7902 21.4719C85.6253 21.4719 87.6034 25.2082 87.6308 29.2192V29.8236H76.6968C76.9165 32.406 78.5649 33.8895 80.7902 33.8895C82.411 33.8895 83.7572 33.2851 84.2792 31.8565H87.4385C86.5869 34.7411 84.1418 36.4444 80.7902 36.4444C76.5319 36.4444 73.6198 33.395 73.6198 28.917C73.6198 24.6038 76.6418 21.4719 80.7902 21.4719ZM80.7627 23.9444C78.5649 23.9444 77.0814 25.3455 76.7517 27.5159H84.4715C84.2517 25.2906 82.9605 23.9444 80.7627 23.9444Z"
          fill="white"/>
</svg>
